<mxfile host="app.diagrams.net" modified="2024-04-17T10:49:10.609Z" agent="Mozilla/5.0 (Windows NT 10.0; Win64; x64) AppleWebKit/537.36 (KHTML, like Gecko) Chrome/123.0.0.0 Safari/537.36" version="24.2.5" etag="9vIqI6nimXLp2FXRU5Yh" type="github">
  <diagram name="Страница — 1" id="PmZhLuWWM7t70kD_1B7R">
    <mxGraphModel>
      <root>
        <mxCell id="0" />
        <mxCell id="1" parent="0" />
      </root>
    </mxGraphModel>
  </diagram>
</mxfile>
